<mxfile host="app.diagrams.net" modified="2023-10-21T02:53:47.663Z" agent="Mozilla/5.0 (Windows NT 10.0; WOW64) AppleWebKit/537.36 (KHTML, like Gecko) Chrome/101.0.0.0 Safari/537.36" etag="7v2VM0Hx3IjrfpTqQ7Vn" version="22.0.6" type="device">
  <diagram name="Страница — 1" id="gSmI_S-WL2qwlcynhp8G">
    <mxGraphModel dx="1687" dy="2068" grid="1" gridSize="10" guides="1" tooltips="1" connect="1" arrows="1" fold="1" page="1" pageScale="1" pageWidth="827" pageHeight="1169" math="0" shadow="0">
      <root>
        <mxCell id="0" />
        <mxCell id="1" parent="0" />
        <mxCell id="A21M22BNO2ODbD8kGbER-1" value="Paragraph" style="swimlane;fontStyle=1;align=center;verticalAlign=top;childLayout=stackLayout;horizontal=1;startSize=26;horizontalStack=0;resizeParent=1;resizeParentMax=0;resizeLast=0;collapsible=1;marginBottom=0;whiteSpace=wrap;html=1;" vertex="1" parent="1">
          <mxGeometry x="340" y="513" width="160" height="112" as="geometry" />
        </mxCell>
        <mxCell id="A21M22BNO2ODbD8kGbER-2" value="+&amp;nbsp;getText(): string;" style="text;strokeColor=none;fillColor=none;align=left;verticalAlign=top;spacingLeft=4;spacingRight=4;overflow=hidden;rotatable=0;points=[[0,0.5],[1,0.5]];portConstraint=eastwest;whiteSpace=wrap;html=1;" vertex="1" parent="A21M22BNO2ODbD8kGbER-1">
          <mxGeometry y="26" width="160" height="26" as="geometry" />
        </mxCell>
        <mxCell id="A21M22BNO2ODbD8kGbER-14" value="+ setText(text: string): void;" style="text;strokeColor=none;fillColor=none;align=left;verticalAlign=top;spacingLeft=4;spacingRight=4;overflow=hidden;rotatable=0;points=[[0,0.5],[1,0.5]];portConstraint=eastwest;whiteSpace=wrap;html=1;" vertex="1" parent="A21M22BNO2ODbD8kGbER-1">
          <mxGeometry y="52" width="160" height="26" as="geometry" />
        </mxCell>
        <mxCell id="A21M22BNO2ODbD8kGbER-3" value="" style="line;strokeWidth=1;fillColor=none;align=left;verticalAlign=middle;spacingTop=-1;spacingLeft=3;spacingRight=3;rotatable=0;labelPosition=right;points=[];portConstraint=eastwest;strokeColor=inherit;" vertex="1" parent="A21M22BNO2ODbD8kGbER-1">
          <mxGeometry y="78" width="160" height="8" as="geometry" />
        </mxCell>
        <mxCell id="A21M22BNO2ODbD8kGbER-4" value="- text: string" style="text;strokeColor=none;fillColor=none;align=left;verticalAlign=top;spacingLeft=4;spacingRight=4;overflow=hidden;rotatable=0;points=[[0,0.5],[1,0.5]];portConstraint=eastwest;whiteSpace=wrap;html=1;" vertex="1" parent="A21M22BNO2ODbD8kGbER-1">
          <mxGeometry y="86" width="160" height="26" as="geometry" />
        </mxCell>
        <mxCell id="A21M22BNO2ODbD8kGbER-9" value="«interface»&lt;br style=&quot;border-color: var(--border-color);&quot;&gt;&lt;b&gt;IParagraph&lt;/b&gt;" style="swimlane;fontStyle=0;childLayout=stackLayout;horizontal=1;startSize=26;fillColor=none;horizontalStack=0;resizeParent=1;resizeParentMax=0;resizeLast=0;collapsible=1;marginBottom=0;whiteSpace=wrap;html=1;" vertex="1" parent="1">
          <mxGeometry x="720" y="520" width="460" height="78" as="geometry" />
        </mxCell>
        <mxCell id="A21M22BNO2ODbD8kGbER-10" value="+&amp;nbsp;getText(): string;" style="text;strokeColor=none;fillColor=none;align=left;verticalAlign=top;spacingLeft=4;spacingRight=4;overflow=hidden;rotatable=0;points=[[0,0.5],[1,0.5]];portConstraint=eastwest;whiteSpace=wrap;html=1;" vertex="1" parent="A21M22BNO2ODbD8kGbER-9">
          <mxGeometry y="26" width="460" height="26" as="geometry" />
        </mxCell>
        <mxCell id="A21M22BNO2ODbD8kGbER-11" value="+ setText(text: string): void;" style="text;strokeColor=none;fillColor=none;align=left;verticalAlign=top;spacingLeft=4;spacingRight=4;overflow=hidden;rotatable=0;points=[[0,0.5],[1,0.5]];portConstraint=eastwest;whiteSpace=wrap;html=1;" vertex="1" parent="A21M22BNO2ODbD8kGbER-9">
          <mxGeometry y="52" width="460" height="26" as="geometry" />
        </mxCell>
        <mxCell id="A21M22BNO2ODbD8kGbER-13" value="" style="endArrow=block;dashed=1;endFill=0;endSize=12;html=1;rounded=0;" edge="1" parent="1" source="A21M22BNO2ODbD8kGbER-1" target="A21M22BNO2ODbD8kGbER-9">
          <mxGeometry width="160" relative="1" as="geometry">
            <mxPoint x="650" y="310" as="sourcePoint" />
            <mxPoint x="810" y="310" as="targetPoint" />
          </mxGeometry>
        </mxCell>
        <mxCell id="A21M22BNO2ODbD8kGbER-15" value="Image" style="swimlane;fontStyle=1;align=center;verticalAlign=top;childLayout=stackLayout;horizontal=1;startSize=26;horizontalStack=0;resizeParent=1;resizeParentMax=0;resizeLast=0;collapsible=1;marginBottom=0;whiteSpace=wrap;html=1;" vertex="1" parent="1">
          <mxGeometry x="1090" y="-262" width="360" height="216" as="geometry" />
        </mxCell>
        <mxCell id="A21M22BNO2ODbD8kGbER-26" value="+&amp;nbsp;getPath(): string;&amp;nbsp;" style="text;strokeColor=none;fillColor=none;align=left;verticalAlign=top;spacingLeft=4;spacingRight=4;overflow=hidden;rotatable=0;points=[[0,0.5],[1,0.5]];portConstraint=eastwest;whiteSpace=wrap;html=1;" vertex="1" parent="A21M22BNO2ODbD8kGbER-15">
          <mxGeometry y="26" width="360" height="26" as="geometry" />
        </mxCell>
        <mxCell id="A21M22BNO2ODbD8kGbER-27" value="+ getWidth(): number;&amp;nbsp;" style="text;strokeColor=none;fillColor=none;align=left;verticalAlign=top;spacingLeft=4;spacingRight=4;overflow=hidden;rotatable=0;points=[[0,0.5],[1,0.5]];portConstraint=eastwest;whiteSpace=wrap;html=1;" vertex="1" parent="A21M22BNO2ODbD8kGbER-15">
          <mxGeometry y="52" width="360" height="26" as="geometry" />
        </mxCell>
        <mxCell id="A21M22BNO2ODbD8kGbER-28" value="+ getHeight(): number;&amp;nbsp;" style="text;strokeColor=none;fillColor=none;align=left;verticalAlign=top;spacingLeft=4;spacingRight=4;overflow=hidden;rotatable=0;points=[[0,0.5],[1,0.5]];portConstraint=eastwest;whiteSpace=wrap;html=1;" vertex="1" parent="A21M22BNO2ODbD8kGbER-15">
          <mxGeometry y="78" width="360" height="26" as="geometry" />
        </mxCell>
        <mxCell id="A21M22BNO2ODbD8kGbER-29" value="+ resize(width: number, height: number): void;" style="text;strokeColor=none;fillColor=none;align=left;verticalAlign=top;spacingLeft=4;spacingRight=4;overflow=hidden;rotatable=0;points=[[0,0.5],[1,0.5]];portConstraint=eastwest;whiteSpace=wrap;html=1;" vertex="1" parent="A21M22BNO2ODbD8kGbER-15">
          <mxGeometry y="104" width="360" height="26" as="geometry" />
        </mxCell>
        <mxCell id="A21M22BNO2ODbD8kGbER-18" value="" style="line;strokeWidth=1;fillColor=none;align=left;verticalAlign=middle;spacingTop=-1;spacingLeft=3;spacingRight=3;rotatable=0;labelPosition=right;points=[];portConstraint=eastwest;strokeColor=inherit;" vertex="1" parent="A21M22BNO2ODbD8kGbER-15">
          <mxGeometry y="130" width="360" height="8" as="geometry" />
        </mxCell>
        <mxCell id="A21M22BNO2ODbD8kGbER-19" value="-&amp;nbsp;path: string;" style="text;strokeColor=none;fillColor=none;align=left;verticalAlign=top;spacingLeft=4;spacingRight=4;overflow=hidden;rotatable=0;points=[[0,0.5],[1,0.5]];portConstraint=eastwest;whiteSpace=wrap;html=1;" vertex="1" parent="A21M22BNO2ODbD8kGbER-15">
          <mxGeometry y="138" width="360" height="26" as="geometry" />
        </mxCell>
        <mxCell id="A21M22BNO2ODbD8kGbER-30" value="-&amp;nbsp;width: number;" style="text;strokeColor=none;fillColor=none;align=left;verticalAlign=top;spacingLeft=4;spacingRight=4;overflow=hidden;rotatable=0;points=[[0,0.5],[1,0.5]];portConstraint=eastwest;whiteSpace=wrap;html=1;" vertex="1" parent="A21M22BNO2ODbD8kGbER-15">
          <mxGeometry y="164" width="360" height="26" as="geometry" />
        </mxCell>
        <mxCell id="A21M22BNO2ODbD8kGbER-31" value="-&amp;nbsp;height: number;" style="text;strokeColor=none;fillColor=none;align=left;verticalAlign=top;spacingLeft=4;spacingRight=4;overflow=hidden;rotatable=0;points=[[0,0.5],[1,0.5]];portConstraint=eastwest;whiteSpace=wrap;html=1;" vertex="1" parent="A21M22BNO2ODbD8kGbER-15">
          <mxGeometry y="190" width="360" height="26" as="geometry" />
        </mxCell>
        <mxCell id="A21M22BNO2ODbD8kGbER-20" value="«interface»&lt;br style=&quot;border-color: var(--border-color);&quot;&gt;&lt;b&gt;IImage&lt;/b&gt;" style="swimlane;fontStyle=0;childLayout=stackLayout;horizontal=1;startSize=26;fillColor=none;horizontalStack=0;resizeParent=1;resizeParentMax=0;resizeLast=0;collapsible=1;marginBottom=0;whiteSpace=wrap;html=1;" vertex="1" parent="1">
          <mxGeometry x="1030" y="60" width="460" height="130" as="geometry" />
        </mxCell>
        <mxCell id="A21M22BNO2ODbD8kGbER-21" value="+&amp;nbsp;getPath(): string;&amp;nbsp;" style="text;strokeColor=none;fillColor=none;align=left;verticalAlign=top;spacingLeft=4;spacingRight=4;overflow=hidden;rotatable=0;points=[[0,0.5],[1,0.5]];portConstraint=eastwest;whiteSpace=wrap;html=1;" vertex="1" parent="A21M22BNO2ODbD8kGbER-20">
          <mxGeometry y="26" width="460" height="26" as="geometry" />
        </mxCell>
        <mxCell id="A21M22BNO2ODbD8kGbER-22" value="+ getWidth(): number;&amp;nbsp;" style="text;strokeColor=none;fillColor=none;align=left;verticalAlign=top;spacingLeft=4;spacingRight=4;overflow=hidden;rotatable=0;points=[[0,0.5],[1,0.5]];portConstraint=eastwest;whiteSpace=wrap;html=1;" vertex="1" parent="A21M22BNO2ODbD8kGbER-20">
          <mxGeometry y="52" width="460" height="26" as="geometry" />
        </mxCell>
        <mxCell id="A21M22BNO2ODbD8kGbER-24" value="+ getHeight(): number;&amp;nbsp;" style="text;strokeColor=none;fillColor=none;align=left;verticalAlign=top;spacingLeft=4;spacingRight=4;overflow=hidden;rotatable=0;points=[[0,0.5],[1,0.5]];portConstraint=eastwest;whiteSpace=wrap;html=1;" vertex="1" parent="A21M22BNO2ODbD8kGbER-20">
          <mxGeometry y="78" width="460" height="26" as="geometry" />
        </mxCell>
        <mxCell id="A21M22BNO2ODbD8kGbER-25" value="+ resize(width: number, height: number): void;" style="text;strokeColor=none;fillColor=none;align=left;verticalAlign=top;spacingLeft=4;spacingRight=4;overflow=hidden;rotatable=0;points=[[0,0.5],[1,0.5]];portConstraint=eastwest;whiteSpace=wrap;html=1;" vertex="1" parent="A21M22BNO2ODbD8kGbER-20">
          <mxGeometry y="104" width="460" height="26" as="geometry" />
        </mxCell>
        <mxCell id="A21M22BNO2ODbD8kGbER-23" value="" style="endArrow=block;dashed=1;endFill=0;endSize=12;html=1;rounded=0;" edge="1" source="A21M22BNO2ODbD8kGbER-15" target="A21M22BNO2ODbD8kGbER-20" parent="1">
          <mxGeometry width="160" relative="1" as="geometry">
            <mxPoint x="1100" y="-450" as="sourcePoint" />
            <mxPoint x="1260" y="-450" as="targetPoint" />
          </mxGeometry>
        </mxCell>
        <mxCell id="A21M22BNO2ODbD8kGbER-32" value="DocumentItem" style="swimlane;fontStyle=1;align=center;verticalAlign=top;childLayout=stackLayout;horizontal=1;startSize=26;horizontalStack=0;resizeParent=1;resizeParentMax=0;resizeLast=0;collapsible=1;marginBottom=0;whiteSpace=wrap;html=1;" vertex="1" parent="1">
          <mxGeometry x="850" y="280" width="360" height="138" as="geometry" />
        </mxCell>
        <mxCell id="A21M22BNO2ODbD8kGbER-33" value="+ getImage(): IImage" style="text;strokeColor=none;fillColor=none;align=left;verticalAlign=top;spacingLeft=4;spacingRight=4;overflow=hidden;rotatable=0;points=[[0,0.5],[1,0.5]];portConstraint=eastwest;whiteSpace=wrap;html=1;" vertex="1" parent="A21M22BNO2ODbD8kGbER-32">
          <mxGeometry y="26" width="360" height="26" as="geometry" />
        </mxCell>
        <mxCell id="A21M22BNO2ODbD8kGbER-34" value="+ getParagraph(): IParagraph" style="text;strokeColor=none;fillColor=none;align=left;verticalAlign=top;spacingLeft=4;spacingRight=4;overflow=hidden;rotatable=0;points=[[0,0.5],[1,0.5]];portConstraint=eastwest;whiteSpace=wrap;html=1;" vertex="1" parent="A21M22BNO2ODbD8kGbER-32">
          <mxGeometry y="52" width="360" height="26" as="geometry" />
        </mxCell>
        <mxCell id="A21M22BNO2ODbD8kGbER-37" value="" style="line;strokeWidth=1;fillColor=none;align=left;verticalAlign=middle;spacingTop=-1;spacingLeft=3;spacingRight=3;rotatable=0;labelPosition=right;points=[];portConstraint=eastwest;strokeColor=inherit;" vertex="1" parent="A21M22BNO2ODbD8kGbER-32">
          <mxGeometry y="78" width="360" height="8" as="geometry" />
        </mxCell>
        <mxCell id="A21M22BNO2ODbD8kGbER-38" value="-&amp;nbsp;image: IImage;" style="text;strokeColor=none;fillColor=none;align=left;verticalAlign=top;spacingLeft=4;spacingRight=4;overflow=hidden;rotatable=0;points=[[0,0.5],[1,0.5]];portConstraint=eastwest;whiteSpace=wrap;html=1;" vertex="1" parent="A21M22BNO2ODbD8kGbER-32">
          <mxGeometry y="86" width="360" height="26" as="geometry" />
        </mxCell>
        <mxCell id="A21M22BNO2ODbD8kGbER-39" value="- paragraph: IParagraph" style="text;strokeColor=none;fillColor=none;align=left;verticalAlign=top;spacingLeft=4;spacingRight=4;overflow=hidden;rotatable=0;points=[[0,0.5],[1,0.5]];portConstraint=eastwest;whiteSpace=wrap;html=1;" vertex="1" parent="A21M22BNO2ODbD8kGbER-32">
          <mxGeometry y="112" width="360" height="26" as="geometry" />
        </mxCell>
        <mxCell id="A21M22BNO2ODbD8kGbER-41" value="«interface»&lt;br style=&quot;border-color: var(--border-color);&quot;&gt;&lt;b&gt;ICommand&lt;/b&gt;" style="swimlane;fontStyle=0;childLayout=stackLayout;horizontal=1;startSize=26;fillColor=none;horizontalStack=0;resizeParent=1;resizeParentMax=0;resizeLast=0;collapsible=1;marginBottom=0;whiteSpace=wrap;html=1;" vertex="1" parent="1">
          <mxGeometry x="790" y="740" width="460" height="78" as="geometry" />
        </mxCell>
        <mxCell id="A21M22BNO2ODbD8kGbER-42" value="+&amp;nbsp;execute(): void;" style="text;strokeColor=none;fillColor=none;align=left;verticalAlign=top;spacingLeft=4;spacingRight=4;overflow=hidden;rotatable=0;points=[[0,0.5],[1,0.5]];portConstraint=eastwest;whiteSpace=wrap;html=1;" vertex="1" parent="A21M22BNO2ODbD8kGbER-41">
          <mxGeometry y="26" width="460" height="26" as="geometry" />
        </mxCell>
        <mxCell id="A21M22BNO2ODbD8kGbER-43" value="+ unexecute(): void;" style="text;strokeColor=none;fillColor=none;align=left;verticalAlign=top;spacingLeft=4;spacingRight=4;overflow=hidden;rotatable=0;points=[[0,0.5],[1,0.5]];portConstraint=eastwest;whiteSpace=wrap;html=1;" vertex="1" parent="A21M22BNO2ODbD8kGbER-41">
          <mxGeometry y="52" width="460" height="26" as="geometry" />
        </mxCell>
        <mxCell id="A21M22BNO2ODbD8kGbER-46" value="AbstractCommand" style="swimlane;fontStyle=1;align=center;verticalAlign=top;childLayout=stackLayout;horizontal=1;startSize=26;horizontalStack=0;resizeParent=1;resizeParentMax=0;resizeLast=0;collapsible=1;marginBottom=0;whiteSpace=wrap;html=1;" vertex="1" parent="1">
          <mxGeometry x="860" y="850" width="360" height="172" as="geometry" />
        </mxCell>
        <mxCell id="A21M22BNO2ODbD8kGbER-52" value="+&amp;nbsp;execute(): void;" style="text;strokeColor=none;fillColor=none;align=left;verticalAlign=top;spacingLeft=4;spacingRight=4;overflow=hidden;rotatable=0;points=[[0,0.5],[1,0.5]];portConstraint=eastwest;whiteSpace=wrap;html=1;" vertex="1" parent="A21M22BNO2ODbD8kGbER-46">
          <mxGeometry y="26" width="360" height="26" as="geometry" />
        </mxCell>
        <mxCell id="A21M22BNO2ODbD8kGbER-53" value="+ unexecute(): void;" style="text;strokeColor=none;fillColor=none;align=left;verticalAlign=top;spacingLeft=4;spacingRight=4;overflow=hidden;rotatable=0;points=[[0,0.5],[1,0.5]];portConstraint=eastwest;whiteSpace=wrap;html=1;" vertex="1" parent="A21M22BNO2ODbD8kGbER-46">
          <mxGeometry y="52" width="360" height="26" as="geometry" />
        </mxCell>
        <mxCell id="A21M22BNO2ODbD8kGbER-54" value="" style="line;strokeWidth=1;fillColor=none;align=left;verticalAlign=middle;spacingTop=-1;spacingLeft=3;spacingRight=3;rotatable=0;labelPosition=right;points=[];portConstraint=eastwest;strokeColor=inherit;" vertex="1" parent="A21M22BNO2ODbD8kGbER-46">
          <mxGeometry y="78" width="360" height="8" as="geometry" />
        </mxCell>
        <mxCell id="A21M22BNO2ODbD8kGbER-47" value="# doExecute(): void;" style="text;strokeColor=none;fillColor=none;align=left;verticalAlign=top;spacingLeft=4;spacingRight=4;overflow=hidden;rotatable=0;points=[[0,0.5],[1,0.5]];portConstraint=eastwest;whiteSpace=wrap;html=1;" vertex="1" parent="A21M22BNO2ODbD8kGbER-46">
          <mxGeometry y="86" width="360" height="26" as="geometry" />
        </mxCell>
        <mxCell id="A21M22BNO2ODbD8kGbER-48" value="# doUnexecute(): void;" style="text;strokeColor=none;fillColor=none;align=left;verticalAlign=top;spacingLeft=4;spacingRight=4;overflow=hidden;rotatable=0;points=[[0,0.5],[1,0.5]];portConstraint=eastwest;whiteSpace=wrap;html=1;" vertex="1" parent="A21M22BNO2ODbD8kGbER-46">
          <mxGeometry y="112" width="360" height="26" as="geometry" />
        </mxCell>
        <mxCell id="A21M22BNO2ODbD8kGbER-49" value="" style="line;strokeWidth=1;fillColor=none;align=left;verticalAlign=middle;spacingTop=-1;spacingLeft=3;spacingRight=3;rotatable=0;labelPosition=right;points=[];portConstraint=eastwest;strokeColor=inherit;" vertex="1" parent="A21M22BNO2ODbD8kGbER-46">
          <mxGeometry y="138" width="360" height="8" as="geometry" />
        </mxCell>
        <mxCell id="A21M22BNO2ODbD8kGbER-50" value="-&amp;nbsp;executed: boolean" style="text;strokeColor=none;fillColor=none;align=left;verticalAlign=top;spacingLeft=4;spacingRight=4;overflow=hidden;rotatable=0;points=[[0,0.5],[1,0.5]];portConstraint=eastwest;whiteSpace=wrap;html=1;" vertex="1" parent="A21M22BNO2ODbD8kGbER-46">
          <mxGeometry y="146" width="360" height="26" as="geometry" />
        </mxCell>
        <mxCell id="A21M22BNO2ODbD8kGbER-55" value="" style="endArrow=block;dashed=1;endFill=0;endSize=12;html=1;rounded=0;" edge="1" parent="1" source="A21M22BNO2ODbD8kGbER-46" target="A21M22BNO2ODbD8kGbER-41">
          <mxGeometry width="160" relative="1" as="geometry">
            <mxPoint x="830" y="810" as="sourcePoint" />
            <mxPoint x="990" y="810" as="targetPoint" />
          </mxGeometry>
        </mxCell>
        <mxCell id="A21M22BNO2ODbD8kGbER-56" value="InsertImageCommand" style="swimlane;fontStyle=1;align=center;verticalAlign=top;childLayout=stackLayout;horizontal=1;startSize=26;horizontalStack=0;resizeParent=1;resizeParentMax=0;resizeLast=0;collapsible=1;marginBottom=0;whiteSpace=wrap;html=1;" vertex="1" parent="1">
          <mxGeometry x="54" y="1170" width="360" height="216" as="geometry" />
        </mxCell>
        <mxCell id="A21M22BNO2ODbD8kGbER-60" value="# doExecute(): void;" style="text;strokeColor=none;fillColor=none;align=left;verticalAlign=top;spacingLeft=4;spacingRight=4;overflow=hidden;rotatable=0;points=[[0,0.5],[1,0.5]];portConstraint=eastwest;whiteSpace=wrap;html=1;" vertex="1" parent="A21M22BNO2ODbD8kGbER-56">
          <mxGeometry y="26" width="360" height="26" as="geometry" />
        </mxCell>
        <mxCell id="A21M22BNO2ODbD8kGbER-61" value="# doUnexecute(): void;" style="text;strokeColor=none;fillColor=none;align=left;verticalAlign=top;spacingLeft=4;spacingRight=4;overflow=hidden;rotatable=0;points=[[0,0.5],[1,0.5]];portConstraint=eastwest;whiteSpace=wrap;html=1;" vertex="1" parent="A21M22BNO2ODbD8kGbER-56">
          <mxGeometry y="52" width="360" height="26" as="geometry" />
        </mxCell>
        <mxCell id="A21M22BNO2ODbD8kGbER-62" value="" style="line;strokeWidth=1;fillColor=none;align=left;verticalAlign=middle;spacingTop=-1;spacingLeft=3;spacingRight=3;rotatable=0;labelPosition=right;points=[];portConstraint=eastwest;strokeColor=inherit;" vertex="1" parent="A21M22BNO2ODbD8kGbER-56">
          <mxGeometry y="78" width="360" height="8" as="geometry" />
        </mxCell>
        <mxCell id="A21M22BNO2ODbD8kGbER-63" value="- document: IDocument" style="text;strokeColor=none;fillColor=none;align=left;verticalAlign=top;spacingLeft=4;spacingRight=4;overflow=hidden;rotatable=0;points=[[0,0.5],[1,0.5]];portConstraint=eastwest;whiteSpace=wrap;html=1;" vertex="1" parent="A21M22BNO2ODbD8kGbER-56">
          <mxGeometry y="86" width="360" height="26" as="geometry" />
        </mxCell>
        <mxCell id="A21M22BNO2ODbD8kGbER-65" value="- path: string;" style="text;strokeColor=none;fillColor=none;align=left;verticalAlign=top;spacingLeft=4;spacingRight=4;overflow=hidden;rotatable=0;points=[[0,0.5],[1,0.5]];portConstraint=eastwest;whiteSpace=wrap;html=1;" vertex="1" parent="A21M22BNO2ODbD8kGbER-56">
          <mxGeometry y="112" width="360" height="26" as="geometry" />
        </mxCell>
        <mxCell id="A21M22BNO2ODbD8kGbER-66" value="- width: number;" style="text;strokeColor=none;fillColor=none;align=left;verticalAlign=top;spacingLeft=4;spacingRight=4;overflow=hidden;rotatable=0;points=[[0,0.5],[1,0.5]];portConstraint=eastwest;whiteSpace=wrap;html=1;" vertex="1" parent="A21M22BNO2ODbD8kGbER-56">
          <mxGeometry y="138" width="360" height="26" as="geometry" />
        </mxCell>
        <mxCell id="A21M22BNO2ODbD8kGbER-67" value="- height: number;" style="text;strokeColor=none;fillColor=none;align=left;verticalAlign=top;spacingLeft=4;spacingRight=4;overflow=hidden;rotatable=0;points=[[0,0.5],[1,0.5]];portConstraint=eastwest;whiteSpace=wrap;html=1;" vertex="1" parent="A21M22BNO2ODbD8kGbER-56">
          <mxGeometry y="164" width="360" height="26" as="geometry" />
        </mxCell>
        <mxCell id="A21M22BNO2ODbD8kGbER-68" value="-&amp;nbsp;position: number;" style="text;strokeColor=none;fillColor=none;align=left;verticalAlign=top;spacingLeft=4;spacingRight=4;overflow=hidden;rotatable=0;points=[[0,0.5],[1,0.5]];portConstraint=eastwest;whiteSpace=wrap;html=1;" vertex="1" parent="A21M22BNO2ODbD8kGbER-56">
          <mxGeometry y="190" width="360" height="26" as="geometry" />
        </mxCell>
        <mxCell id="A21M22BNO2ODbD8kGbER-69" value="Extends" style="endArrow=block;endSize=16;endFill=0;html=1;rounded=0;" edge="1" parent="1" source="A21M22BNO2ODbD8kGbER-56" target="A21M22BNO2ODbD8kGbER-46">
          <mxGeometry width="160" relative="1" as="geometry">
            <mxPoint x="830" y="930" as="sourcePoint" />
            <mxPoint x="990" y="930" as="targetPoint" />
          </mxGeometry>
        </mxCell>
        <mxCell id="A21M22BNO2ODbD8kGbER-70" value="DeleteItemCommand" style="swimlane;fontStyle=1;align=center;verticalAlign=top;childLayout=stackLayout;horizontal=1;startSize=26;horizontalStack=0;resizeParent=1;resizeParentMax=0;resizeLast=0;collapsible=1;marginBottom=0;whiteSpace=wrap;html=1;" vertex="1" parent="1">
          <mxGeometry x="650" y="1288" width="200" height="164" as="geometry" />
        </mxCell>
        <mxCell id="A21M22BNO2ODbD8kGbER-71" value="# doExecute(): void;" style="text;strokeColor=none;fillColor=none;align=left;verticalAlign=top;spacingLeft=4;spacingRight=4;overflow=hidden;rotatable=0;points=[[0,0.5],[1,0.5]];portConstraint=eastwest;whiteSpace=wrap;html=1;" vertex="1" parent="A21M22BNO2ODbD8kGbER-70">
          <mxGeometry y="26" width="200" height="26" as="geometry" />
        </mxCell>
        <mxCell id="A21M22BNO2ODbD8kGbER-72" value="# doUnexecute(): void;" style="text;strokeColor=none;fillColor=none;align=left;verticalAlign=top;spacingLeft=4;spacingRight=4;overflow=hidden;rotatable=0;points=[[0,0.5],[1,0.5]];portConstraint=eastwest;whiteSpace=wrap;html=1;" vertex="1" parent="A21M22BNO2ODbD8kGbER-70">
          <mxGeometry y="52" width="200" height="26" as="geometry" />
        </mxCell>
        <mxCell id="A21M22BNO2ODbD8kGbER-73" value="" style="line;strokeWidth=1;fillColor=none;align=left;verticalAlign=middle;spacingTop=-1;spacingLeft=3;spacingRight=3;rotatable=0;labelPosition=right;points=[];portConstraint=eastwest;strokeColor=inherit;" vertex="1" parent="A21M22BNO2ODbD8kGbER-70">
          <mxGeometry y="78" width="200" height="8" as="geometry" />
        </mxCell>
        <mxCell id="A21M22BNO2ODbD8kGbER-74" value="- document: IDocument" style="text;strokeColor=none;fillColor=none;align=left;verticalAlign=top;spacingLeft=4;spacingRight=4;overflow=hidden;rotatable=0;points=[[0,0.5],[1,0.5]];portConstraint=eastwest;whiteSpace=wrap;html=1;" vertex="1" parent="A21M22BNO2ODbD8kGbER-70">
          <mxGeometry y="86" width="200" height="26" as="geometry" />
        </mxCell>
        <mxCell id="A21M22BNO2ODbD8kGbER-78" value="-&amp;nbsp;position: number;" style="text;strokeColor=none;fillColor=none;align=left;verticalAlign=top;spacingLeft=4;spacingRight=4;overflow=hidden;rotatable=0;points=[[0,0.5],[1,0.5]];portConstraint=eastwest;whiteSpace=wrap;html=1;" vertex="1" parent="A21M22BNO2ODbD8kGbER-70">
          <mxGeometry y="112" width="200" height="26" as="geometry" />
        </mxCell>
        <mxCell id="A21M22BNO2ODbD8kGbER-77" value="-&amp;nbsp;previousItem: DocumentItem;" style="text;strokeColor=none;fillColor=none;align=left;verticalAlign=top;spacingLeft=4;spacingRight=4;overflow=hidden;rotatable=0;points=[[0,0.5],[1,0.5]];portConstraint=eastwest;whiteSpace=wrap;html=1;" vertex="1" parent="A21M22BNO2ODbD8kGbER-70">
          <mxGeometry y="138" width="200" height="26" as="geometry" />
        </mxCell>
        <mxCell id="A21M22BNO2ODbD8kGbER-79" value="InsertParagraphCommand" style="swimlane;fontStyle=1;align=center;verticalAlign=top;childLayout=stackLayout;horizontal=1;startSize=26;horizontalStack=0;resizeParent=1;resizeParentMax=0;resizeLast=0;collapsible=1;marginBottom=0;whiteSpace=wrap;html=1;" vertex="1" parent="1">
          <mxGeometry x="1640" y="970" width="360" height="164" as="geometry" />
        </mxCell>
        <mxCell id="A21M22BNO2ODbD8kGbER-80" value="# doExecute(): void;" style="text;strokeColor=none;fillColor=none;align=left;verticalAlign=top;spacingLeft=4;spacingRight=4;overflow=hidden;rotatable=0;points=[[0,0.5],[1,0.5]];portConstraint=eastwest;whiteSpace=wrap;html=1;" vertex="1" parent="A21M22BNO2ODbD8kGbER-79">
          <mxGeometry y="26" width="360" height="26" as="geometry" />
        </mxCell>
        <mxCell id="A21M22BNO2ODbD8kGbER-81" value="# doUnexecute(): void;" style="text;strokeColor=none;fillColor=none;align=left;verticalAlign=top;spacingLeft=4;spacingRight=4;overflow=hidden;rotatable=0;points=[[0,0.5],[1,0.5]];portConstraint=eastwest;whiteSpace=wrap;html=1;" vertex="1" parent="A21M22BNO2ODbD8kGbER-79">
          <mxGeometry y="52" width="360" height="26" as="geometry" />
        </mxCell>
        <mxCell id="A21M22BNO2ODbD8kGbER-82" value="" style="line;strokeWidth=1;fillColor=none;align=left;verticalAlign=middle;spacingTop=-1;spacingLeft=3;spacingRight=3;rotatable=0;labelPosition=right;points=[];portConstraint=eastwest;strokeColor=inherit;" vertex="1" parent="A21M22BNO2ODbD8kGbER-79">
          <mxGeometry y="78" width="360" height="8" as="geometry" />
        </mxCell>
        <mxCell id="A21M22BNO2ODbD8kGbER-83" value="- document: IDocument" style="text;strokeColor=none;fillColor=none;align=left;verticalAlign=top;spacingLeft=4;spacingRight=4;overflow=hidden;rotatable=0;points=[[0,0.5],[1,0.5]];portConstraint=eastwest;whiteSpace=wrap;html=1;" vertex="1" parent="A21M22BNO2ODbD8kGbER-79">
          <mxGeometry y="86" width="360" height="26" as="geometry" />
        </mxCell>
        <mxCell id="A21M22BNO2ODbD8kGbER-84" value="- text: string;" style="text;strokeColor=none;fillColor=none;align=left;verticalAlign=top;spacingLeft=4;spacingRight=4;overflow=hidden;rotatable=0;points=[[0,0.5],[1,0.5]];portConstraint=eastwest;whiteSpace=wrap;html=1;" vertex="1" parent="A21M22BNO2ODbD8kGbER-79">
          <mxGeometry y="112" width="360" height="26" as="geometry" />
        </mxCell>
        <mxCell id="A21M22BNO2ODbD8kGbER-87" value="-&amp;nbsp;position: number;" style="text;strokeColor=none;fillColor=none;align=left;verticalAlign=top;spacingLeft=4;spacingRight=4;overflow=hidden;rotatable=0;points=[[0,0.5],[1,0.5]];portConstraint=eastwest;whiteSpace=wrap;html=1;" vertex="1" parent="A21M22BNO2ODbD8kGbER-79">
          <mxGeometry y="138" width="360" height="26" as="geometry" />
        </mxCell>
        <mxCell id="A21M22BNO2ODbD8kGbER-88" value="ListCommand" style="swimlane;fontStyle=1;align=center;verticalAlign=top;childLayout=stackLayout;horizontal=1;startSize=26;horizontalStack=0;resizeParent=1;resizeParentMax=0;resizeLast=0;collapsible=1;marginBottom=0;whiteSpace=wrap;html=1;" vertex="1" parent="1">
          <mxGeometry x="1640" y="840" width="360" height="112" as="geometry" />
        </mxCell>
        <mxCell id="A21M22BNO2ODbD8kGbER-89" value="# doExecute(): void;" style="text;strokeColor=none;fillColor=none;align=left;verticalAlign=top;spacingLeft=4;spacingRight=4;overflow=hidden;rotatable=0;points=[[0,0.5],[1,0.5]];portConstraint=eastwest;whiteSpace=wrap;html=1;" vertex="1" parent="A21M22BNO2ODbD8kGbER-88">
          <mxGeometry y="26" width="360" height="26" as="geometry" />
        </mxCell>
        <mxCell id="A21M22BNO2ODbD8kGbER-90" value="# doUnexecute(): void;" style="text;strokeColor=none;fillColor=none;align=left;verticalAlign=top;spacingLeft=4;spacingRight=4;overflow=hidden;rotatable=0;points=[[0,0.5],[1,0.5]];portConstraint=eastwest;whiteSpace=wrap;html=1;" vertex="1" parent="A21M22BNO2ODbD8kGbER-88">
          <mxGeometry y="52" width="360" height="26" as="geometry" />
        </mxCell>
        <mxCell id="A21M22BNO2ODbD8kGbER-91" value="" style="line;strokeWidth=1;fillColor=none;align=left;verticalAlign=middle;spacingTop=-1;spacingLeft=3;spacingRight=3;rotatable=0;labelPosition=right;points=[];portConstraint=eastwest;strokeColor=inherit;" vertex="1" parent="A21M22BNO2ODbD8kGbER-88">
          <mxGeometry y="78" width="360" height="8" as="geometry" />
        </mxCell>
        <mxCell id="A21M22BNO2ODbD8kGbER-92" value="- document: IDocument" style="text;strokeColor=none;fillColor=none;align=left;verticalAlign=top;spacingLeft=4;spacingRight=4;overflow=hidden;rotatable=0;points=[[0,0.5],[1,0.5]];portConstraint=eastwest;whiteSpace=wrap;html=1;" vertex="1" parent="A21M22BNO2ODbD8kGbER-88">
          <mxGeometry y="86" width="360" height="26" as="geometry" />
        </mxCell>
        <mxCell id="A21M22BNO2ODbD8kGbER-98" value="MacroCommand" style="swimlane;fontStyle=1;align=center;verticalAlign=top;childLayout=stackLayout;horizontal=1;startSize=26;horizontalStack=0;resizeParent=1;resizeParentMax=0;resizeLast=0;collapsible=1;marginBottom=0;whiteSpace=wrap;html=1;" vertex="1" parent="1">
          <mxGeometry x="870" y="1288" width="180" height="112" as="geometry" />
        </mxCell>
        <mxCell id="A21M22BNO2ODbD8kGbER-99" value="# doExecute(): void;" style="text;strokeColor=none;fillColor=none;align=left;verticalAlign=top;spacingLeft=4;spacingRight=4;overflow=hidden;rotatable=0;points=[[0,0.5],[1,0.5]];portConstraint=eastwest;whiteSpace=wrap;html=1;" vertex="1" parent="A21M22BNO2ODbD8kGbER-98">
          <mxGeometry y="26" width="180" height="26" as="geometry" />
        </mxCell>
        <mxCell id="A21M22BNO2ODbD8kGbER-100" value="# doUnexecute(): void;" style="text;strokeColor=none;fillColor=none;align=left;verticalAlign=top;spacingLeft=4;spacingRight=4;overflow=hidden;rotatable=0;points=[[0,0.5],[1,0.5]];portConstraint=eastwest;whiteSpace=wrap;html=1;" vertex="1" parent="A21M22BNO2ODbD8kGbER-98">
          <mxGeometry y="52" width="180" height="26" as="geometry" />
        </mxCell>
        <mxCell id="A21M22BNO2ODbD8kGbER-101" value="" style="line;strokeWidth=1;fillColor=none;align=left;verticalAlign=middle;spacingTop=-1;spacingLeft=3;spacingRight=3;rotatable=0;labelPosition=right;points=[];portConstraint=eastwest;strokeColor=inherit;" vertex="1" parent="A21M22BNO2ODbD8kGbER-98">
          <mxGeometry y="78" width="180" height="8" as="geometry" />
        </mxCell>
        <mxCell id="A21M22BNO2ODbD8kGbER-102" value="-&amp;nbsp;commands: ICommand[];" style="text;strokeColor=none;fillColor=none;align=left;verticalAlign=top;spacingLeft=4;spacingRight=4;overflow=hidden;rotatable=0;points=[[0,0.5],[1,0.5]];portConstraint=eastwest;whiteSpace=wrap;html=1;" vertex="1" parent="A21M22BNO2ODbD8kGbER-98">
          <mxGeometry y="86" width="180" height="26" as="geometry" />
        </mxCell>
        <mxCell id="A21M22BNO2ODbD8kGbER-104" value="RedoCommand" style="swimlane;fontStyle=1;align=center;verticalAlign=top;childLayout=stackLayout;horizontal=1;startSize=26;horizontalStack=0;resizeParent=1;resizeParentMax=0;resizeLast=0;collapsible=1;marginBottom=0;whiteSpace=wrap;html=1;" vertex="1" parent="1">
          <mxGeometry x="1640" y="1169" width="360" height="112" as="geometry" />
        </mxCell>
        <mxCell id="A21M22BNO2ODbD8kGbER-105" value="# doExecute(): void;" style="text;strokeColor=none;fillColor=none;align=left;verticalAlign=top;spacingLeft=4;spacingRight=4;overflow=hidden;rotatable=0;points=[[0,0.5],[1,0.5]];portConstraint=eastwest;whiteSpace=wrap;html=1;" vertex="1" parent="A21M22BNO2ODbD8kGbER-104">
          <mxGeometry y="26" width="360" height="26" as="geometry" />
        </mxCell>
        <mxCell id="A21M22BNO2ODbD8kGbER-106" value="# doUnexecute(): void;" style="text;strokeColor=none;fillColor=none;align=left;verticalAlign=top;spacingLeft=4;spacingRight=4;overflow=hidden;rotatable=0;points=[[0,0.5],[1,0.5]];portConstraint=eastwest;whiteSpace=wrap;html=1;" vertex="1" parent="A21M22BNO2ODbD8kGbER-104">
          <mxGeometry y="52" width="360" height="26" as="geometry" />
        </mxCell>
        <mxCell id="A21M22BNO2ODbD8kGbER-107" value="" style="line;strokeWidth=1;fillColor=none;align=left;verticalAlign=middle;spacingTop=-1;spacingLeft=3;spacingRight=3;rotatable=0;labelPosition=right;points=[];portConstraint=eastwest;strokeColor=inherit;" vertex="1" parent="A21M22BNO2ODbD8kGbER-104">
          <mxGeometry y="78" width="360" height="8" as="geometry" />
        </mxCell>
        <mxCell id="A21M22BNO2ODbD8kGbER-108" value="- document: IDocument" style="text;strokeColor=none;fillColor=none;align=left;verticalAlign=top;spacingLeft=4;spacingRight=4;overflow=hidden;rotatable=0;points=[[0,0.5],[1,0.5]];portConstraint=eastwest;whiteSpace=wrap;html=1;" vertex="1" parent="A21M22BNO2ODbD8kGbER-104">
          <mxGeometry y="86" width="360" height="26" as="geometry" />
        </mxCell>
        <mxCell id="A21M22BNO2ODbD8kGbER-111" value="UndoCommand" style="swimlane;fontStyle=1;align=center;verticalAlign=top;childLayout=stackLayout;horizontal=1;startSize=26;horizontalStack=0;resizeParent=1;resizeParentMax=0;resizeLast=0;collapsible=1;marginBottom=0;whiteSpace=wrap;html=1;" vertex="1" parent="1">
          <mxGeometry x="1640" y="1340" width="360" height="112" as="geometry" />
        </mxCell>
        <mxCell id="A21M22BNO2ODbD8kGbER-112" value="# doExecute(): void;" style="text;strokeColor=none;fillColor=none;align=left;verticalAlign=top;spacingLeft=4;spacingRight=4;overflow=hidden;rotatable=0;points=[[0,0.5],[1,0.5]];portConstraint=eastwest;whiteSpace=wrap;html=1;" vertex="1" parent="A21M22BNO2ODbD8kGbER-111">
          <mxGeometry y="26" width="360" height="26" as="geometry" />
        </mxCell>
        <mxCell id="A21M22BNO2ODbD8kGbER-113" value="# doUnexecute(): void;" style="text;strokeColor=none;fillColor=none;align=left;verticalAlign=top;spacingLeft=4;spacingRight=4;overflow=hidden;rotatable=0;points=[[0,0.5],[1,0.5]];portConstraint=eastwest;whiteSpace=wrap;html=1;" vertex="1" parent="A21M22BNO2ODbD8kGbER-111">
          <mxGeometry y="52" width="360" height="26" as="geometry" />
        </mxCell>
        <mxCell id="A21M22BNO2ODbD8kGbER-114" value="" style="line;strokeWidth=1;fillColor=none;align=left;verticalAlign=middle;spacingTop=-1;spacingLeft=3;spacingRight=3;rotatable=0;labelPosition=right;points=[];portConstraint=eastwest;strokeColor=inherit;" vertex="1" parent="A21M22BNO2ODbD8kGbER-111">
          <mxGeometry y="78" width="360" height="8" as="geometry" />
        </mxCell>
        <mxCell id="A21M22BNO2ODbD8kGbER-115" value="- document: IDocument" style="text;strokeColor=none;fillColor=none;align=left;verticalAlign=top;spacingLeft=4;spacingRight=4;overflow=hidden;rotatable=0;points=[[0,0.5],[1,0.5]];portConstraint=eastwest;whiteSpace=wrap;html=1;" vertex="1" parent="A21M22BNO2ODbD8kGbER-111">
          <mxGeometry y="86" width="360" height="26" as="geometry" />
        </mxCell>
        <mxCell id="A21M22BNO2ODbD8kGbER-116" value="ReplaceTextCommand" style="swimlane;fontStyle=1;align=center;verticalAlign=top;childLayout=stackLayout;horizontal=1;startSize=26;horizontalStack=0;resizeParent=1;resizeParentMax=0;resizeLast=0;collapsible=1;marginBottom=0;whiteSpace=wrap;html=1;" vertex="1" parent="1">
          <mxGeometry x="1090" y="1288" width="360" height="190" as="geometry" />
        </mxCell>
        <mxCell id="A21M22BNO2ODbD8kGbER-117" value="# doExecute(): void;" style="text;strokeColor=none;fillColor=none;align=left;verticalAlign=top;spacingLeft=4;spacingRight=4;overflow=hidden;rotatable=0;points=[[0,0.5],[1,0.5]];portConstraint=eastwest;whiteSpace=wrap;html=1;" vertex="1" parent="A21M22BNO2ODbD8kGbER-116">
          <mxGeometry y="26" width="360" height="26" as="geometry" />
        </mxCell>
        <mxCell id="A21M22BNO2ODbD8kGbER-118" value="# doUnexecute(): void;" style="text;strokeColor=none;fillColor=none;align=left;verticalAlign=top;spacingLeft=4;spacingRight=4;overflow=hidden;rotatable=0;points=[[0,0.5],[1,0.5]];portConstraint=eastwest;whiteSpace=wrap;html=1;" vertex="1" parent="A21M22BNO2ODbD8kGbER-116">
          <mxGeometry y="52" width="360" height="26" as="geometry" />
        </mxCell>
        <mxCell id="A21M22BNO2ODbD8kGbER-119" value="" style="line;strokeWidth=1;fillColor=none;align=left;verticalAlign=middle;spacingTop=-1;spacingLeft=3;spacingRight=3;rotatable=0;labelPosition=right;points=[];portConstraint=eastwest;strokeColor=inherit;" vertex="1" parent="A21M22BNO2ODbD8kGbER-116">
          <mxGeometry y="78" width="360" height="8" as="geometry" />
        </mxCell>
        <mxCell id="A21M22BNO2ODbD8kGbER-120" value="- document: IDocument" style="text;strokeColor=none;fillColor=none;align=left;verticalAlign=top;spacingLeft=4;spacingRight=4;overflow=hidden;rotatable=0;points=[[0,0.5],[1,0.5]];portConstraint=eastwest;whiteSpace=wrap;html=1;" vertex="1" parent="A21M22BNO2ODbD8kGbER-116">
          <mxGeometry y="86" width="360" height="26" as="geometry" />
        </mxCell>
        <mxCell id="A21M22BNO2ODbD8kGbER-121" value="-&amp;nbsp;position: number;" style="text;strokeColor=none;fillColor=none;align=left;verticalAlign=top;spacingLeft=4;spacingRight=4;overflow=hidden;rotatable=0;points=[[0,0.5],[1,0.5]];portConstraint=eastwest;whiteSpace=wrap;html=1;" vertex="1" parent="A21M22BNO2ODbD8kGbER-116">
          <mxGeometry y="112" width="360" height="26" as="geometry" />
        </mxCell>
        <mxCell id="A21M22BNO2ODbD8kGbER-122" value="- text: string" style="text;strokeColor=none;fillColor=none;align=left;verticalAlign=top;spacingLeft=4;spacingRight=4;overflow=hidden;rotatable=0;points=[[0,0.5],[1,0.5]];portConstraint=eastwest;whiteSpace=wrap;html=1;" vertex="1" parent="A21M22BNO2ODbD8kGbER-116">
          <mxGeometry y="138" width="360" height="26" as="geometry" />
        </mxCell>
        <mxCell id="A21M22BNO2ODbD8kGbER-123" value="-&amp;nbsp;previousText: string;" style="text;strokeColor=none;fillColor=none;align=left;verticalAlign=top;spacingLeft=4;spacingRight=4;overflow=hidden;rotatable=0;points=[[0,0.5],[1,0.5]];portConstraint=eastwest;whiteSpace=wrap;html=1;" vertex="1" parent="A21M22BNO2ODbD8kGbER-116">
          <mxGeometry y="164" width="360" height="26" as="geometry" />
        </mxCell>
        <mxCell id="A21M22BNO2ODbD8kGbER-124" value="ResizeImageCommand" style="swimlane;fontStyle=1;align=center;verticalAlign=top;childLayout=stackLayout;horizontal=1;startSize=26;horizontalStack=0;resizeParent=1;resizeParentMax=0;resizeLast=0;collapsible=1;marginBottom=0;whiteSpace=wrap;html=1;" vertex="1" parent="1">
          <mxGeometry x="430" y="1210" width="200" height="242" as="geometry" />
        </mxCell>
        <mxCell id="A21M22BNO2ODbD8kGbER-125" value="# doExecute(): void;" style="text;strokeColor=none;fillColor=none;align=left;verticalAlign=top;spacingLeft=4;spacingRight=4;overflow=hidden;rotatable=0;points=[[0,0.5],[1,0.5]];portConstraint=eastwest;whiteSpace=wrap;html=1;" vertex="1" parent="A21M22BNO2ODbD8kGbER-124">
          <mxGeometry y="26" width="200" height="26" as="geometry" />
        </mxCell>
        <mxCell id="A21M22BNO2ODbD8kGbER-126" value="# doUnexecute(): void;" style="text;strokeColor=none;fillColor=none;align=left;verticalAlign=top;spacingLeft=4;spacingRight=4;overflow=hidden;rotatable=0;points=[[0,0.5],[1,0.5]];portConstraint=eastwest;whiteSpace=wrap;html=1;" vertex="1" parent="A21M22BNO2ODbD8kGbER-124">
          <mxGeometry y="52" width="200" height="26" as="geometry" />
        </mxCell>
        <mxCell id="A21M22BNO2ODbD8kGbER-127" value="" style="line;strokeWidth=1;fillColor=none;align=left;verticalAlign=middle;spacingTop=-1;spacingLeft=3;spacingRight=3;rotatable=0;labelPosition=right;points=[];portConstraint=eastwest;strokeColor=inherit;" vertex="1" parent="A21M22BNO2ODbD8kGbER-124">
          <mxGeometry y="78" width="200" height="8" as="geometry" />
        </mxCell>
        <mxCell id="A21M22BNO2ODbD8kGbER-128" value="- document: IDocument" style="text;strokeColor=none;fillColor=none;align=left;verticalAlign=top;spacingLeft=4;spacingRight=4;overflow=hidden;rotatable=0;points=[[0,0.5],[1,0.5]];portConstraint=eastwest;whiteSpace=wrap;html=1;" vertex="1" parent="A21M22BNO2ODbD8kGbER-124">
          <mxGeometry y="86" width="200" height="26" as="geometry" />
        </mxCell>
        <mxCell id="A21M22BNO2ODbD8kGbER-132" value="-&amp;nbsp;position: number;" style="text;strokeColor=none;fillColor=none;align=left;verticalAlign=top;spacingLeft=4;spacingRight=4;overflow=hidden;rotatable=0;points=[[0,0.5],[1,0.5]];portConstraint=eastwest;whiteSpace=wrap;html=1;" vertex="1" parent="A21M22BNO2ODbD8kGbER-124">
          <mxGeometry y="112" width="200" height="26" as="geometry" />
        </mxCell>
        <mxCell id="A21M22BNO2ODbD8kGbER-130" value="- width: number;" style="text;strokeColor=none;fillColor=none;align=left;verticalAlign=top;spacingLeft=4;spacingRight=4;overflow=hidden;rotatable=0;points=[[0,0.5],[1,0.5]];portConstraint=eastwest;whiteSpace=wrap;html=1;" vertex="1" parent="A21M22BNO2ODbD8kGbER-124">
          <mxGeometry y="138" width="200" height="26" as="geometry" />
        </mxCell>
        <mxCell id="A21M22BNO2ODbD8kGbER-131" value="- height: number;" style="text;strokeColor=none;fillColor=none;align=left;verticalAlign=top;spacingLeft=4;spacingRight=4;overflow=hidden;rotatable=0;points=[[0,0.5],[1,0.5]];portConstraint=eastwest;whiteSpace=wrap;html=1;" vertex="1" parent="A21M22BNO2ODbD8kGbER-124">
          <mxGeometry y="164" width="200" height="26" as="geometry" />
        </mxCell>
        <mxCell id="A21M22BNO2ODbD8kGbER-129" value="- previousWidth: number" style="text;strokeColor=none;fillColor=none;align=left;verticalAlign=top;spacingLeft=4;spacingRight=4;overflow=hidden;rotatable=0;points=[[0,0.5],[1,0.5]];portConstraint=eastwest;whiteSpace=wrap;html=1;" vertex="1" parent="A21M22BNO2ODbD8kGbER-124">
          <mxGeometry y="190" width="200" height="26" as="geometry" />
        </mxCell>
        <mxCell id="A21M22BNO2ODbD8kGbER-133" value="- previousHeight: number" style="text;strokeColor=none;fillColor=none;align=left;verticalAlign=top;spacingLeft=4;spacingRight=4;overflow=hidden;rotatable=0;points=[[0,0.5],[1,0.5]];portConstraint=eastwest;whiteSpace=wrap;html=1;" vertex="1" parent="A21M22BNO2ODbD8kGbER-124">
          <mxGeometry y="216" width="200" height="26" as="geometry" />
        </mxCell>
        <mxCell id="A21M22BNO2ODbD8kGbER-134" value="SaveCommand" style="swimlane;fontStyle=1;align=center;verticalAlign=top;childLayout=stackLayout;horizontal=1;startSize=26;horizontalStack=0;resizeParent=1;resizeParentMax=0;resizeLast=0;collapsible=1;marginBottom=0;whiteSpace=wrap;html=1;" vertex="1" parent="1">
          <mxGeometry x="54" y="1010" width="360" height="138" as="geometry" />
        </mxCell>
        <mxCell id="A21M22BNO2ODbD8kGbER-135" value="# doExecute(): void;" style="text;strokeColor=none;fillColor=none;align=left;verticalAlign=top;spacingLeft=4;spacingRight=4;overflow=hidden;rotatable=0;points=[[0,0.5],[1,0.5]];portConstraint=eastwest;whiteSpace=wrap;html=1;" vertex="1" parent="A21M22BNO2ODbD8kGbER-134">
          <mxGeometry y="26" width="360" height="26" as="geometry" />
        </mxCell>
        <mxCell id="A21M22BNO2ODbD8kGbER-136" value="# doUnexecute(): void;" style="text;strokeColor=none;fillColor=none;align=left;verticalAlign=top;spacingLeft=4;spacingRight=4;overflow=hidden;rotatable=0;points=[[0,0.5],[1,0.5]];portConstraint=eastwest;whiteSpace=wrap;html=1;" vertex="1" parent="A21M22BNO2ODbD8kGbER-134">
          <mxGeometry y="52" width="360" height="26" as="geometry" />
        </mxCell>
        <mxCell id="A21M22BNO2ODbD8kGbER-137" value="" style="line;strokeWidth=1;fillColor=none;align=left;verticalAlign=middle;spacingTop=-1;spacingLeft=3;spacingRight=3;rotatable=0;labelPosition=right;points=[];portConstraint=eastwest;strokeColor=inherit;" vertex="1" parent="A21M22BNO2ODbD8kGbER-134">
          <mxGeometry y="78" width="360" height="8" as="geometry" />
        </mxCell>
        <mxCell id="A21M22BNO2ODbD8kGbER-138" value="- document: IDocument" style="text;strokeColor=none;fillColor=none;align=left;verticalAlign=top;spacingLeft=4;spacingRight=4;overflow=hidden;rotatable=0;points=[[0,0.5],[1,0.5]];portConstraint=eastwest;whiteSpace=wrap;html=1;" vertex="1" parent="A21M22BNO2ODbD8kGbER-134">
          <mxGeometry y="86" width="360" height="26" as="geometry" />
        </mxCell>
        <mxCell id="A21M22BNO2ODbD8kGbER-139" value="- path: string;" style="text;strokeColor=none;fillColor=none;align=left;verticalAlign=top;spacingLeft=4;spacingRight=4;overflow=hidden;rotatable=0;points=[[0,0.5],[1,0.5]];portConstraint=eastwest;whiteSpace=wrap;html=1;" vertex="1" parent="A21M22BNO2ODbD8kGbER-134">
          <mxGeometry y="112" width="360" height="26" as="geometry" />
        </mxCell>
        <mxCell id="A21M22BNO2ODbD8kGbER-143" value="SetTitleCommand" style="swimlane;fontStyle=1;align=center;verticalAlign=top;childLayout=stackLayout;horizontal=1;startSize=26;horizontalStack=0;resizeParent=1;resizeParentMax=0;resizeLast=0;collapsible=1;marginBottom=0;whiteSpace=wrap;html=1;" vertex="1" parent="1">
          <mxGeometry x="54" y="840" width="360" height="164" as="geometry" />
        </mxCell>
        <mxCell id="A21M22BNO2ODbD8kGbER-144" value="# doExecute(): void;" style="text;strokeColor=none;fillColor=none;align=left;verticalAlign=top;spacingLeft=4;spacingRight=4;overflow=hidden;rotatable=0;points=[[0,0.5],[1,0.5]];portConstraint=eastwest;whiteSpace=wrap;html=1;" vertex="1" parent="A21M22BNO2ODbD8kGbER-143">
          <mxGeometry y="26" width="360" height="26" as="geometry" />
        </mxCell>
        <mxCell id="A21M22BNO2ODbD8kGbER-145" value="# doUnexecute(): void;" style="text;strokeColor=none;fillColor=none;align=left;verticalAlign=top;spacingLeft=4;spacingRight=4;overflow=hidden;rotatable=0;points=[[0,0.5],[1,0.5]];portConstraint=eastwest;whiteSpace=wrap;html=1;" vertex="1" parent="A21M22BNO2ODbD8kGbER-143">
          <mxGeometry y="52" width="360" height="26" as="geometry" />
        </mxCell>
        <mxCell id="A21M22BNO2ODbD8kGbER-146" value="" style="line;strokeWidth=1;fillColor=none;align=left;verticalAlign=middle;spacingTop=-1;spacingLeft=3;spacingRight=3;rotatable=0;labelPosition=right;points=[];portConstraint=eastwest;strokeColor=inherit;" vertex="1" parent="A21M22BNO2ODbD8kGbER-143">
          <mxGeometry y="78" width="360" height="8" as="geometry" />
        </mxCell>
        <mxCell id="A21M22BNO2ODbD8kGbER-147" value="- document: IDocument" style="text;strokeColor=none;fillColor=none;align=left;verticalAlign=top;spacingLeft=4;spacingRight=4;overflow=hidden;rotatable=0;points=[[0,0.5],[1,0.5]];portConstraint=eastwest;whiteSpace=wrap;html=1;" vertex="1" parent="A21M22BNO2ODbD8kGbER-143">
          <mxGeometry y="86" width="360" height="26" as="geometry" />
        </mxCell>
        <mxCell id="A21M22BNO2ODbD8kGbER-148" value="- title: string;" style="text;strokeColor=none;fillColor=none;align=left;verticalAlign=top;spacingLeft=4;spacingRight=4;overflow=hidden;rotatable=0;points=[[0,0.5],[1,0.5]];portConstraint=eastwest;whiteSpace=wrap;html=1;" vertex="1" parent="A21M22BNO2ODbD8kGbER-143">
          <mxGeometry y="112" width="360" height="26" as="geometry" />
        </mxCell>
        <mxCell id="A21M22BNO2ODbD8kGbER-152" value="- previousTitle: string;" style="text;strokeColor=none;fillColor=none;align=left;verticalAlign=top;spacingLeft=4;spacingRight=4;overflow=hidden;rotatable=0;points=[[0,0.5],[1,0.5]];portConstraint=eastwest;whiteSpace=wrap;html=1;" vertex="1" parent="A21M22BNO2ODbD8kGbER-143">
          <mxGeometry y="138" width="360" height="26" as="geometry" />
        </mxCell>
        <mxCell id="A21M22BNO2ODbD8kGbER-153" value="Extends" style="endArrow=block;endSize=16;endFill=0;html=1;rounded=0;" edge="1" parent="1" source="A21M22BNO2ODbD8kGbER-143" target="A21M22BNO2ODbD8kGbER-46">
          <mxGeometry width="160" relative="1" as="geometry">
            <mxPoint x="709" y="1358" as="sourcePoint" />
            <mxPoint x="979" y="1032" as="targetPoint" />
          </mxGeometry>
        </mxCell>
        <mxCell id="A21M22BNO2ODbD8kGbER-154" value="Extends" style="endArrow=block;endSize=16;endFill=0;html=1;rounded=0;" edge="1" parent="1" source="A21M22BNO2ODbD8kGbER-134" target="A21M22BNO2ODbD8kGbER-46">
          <mxGeometry width="160" relative="1" as="geometry">
            <mxPoint x="720" y="969" as="sourcePoint" />
            <mxPoint x="870" y="959" as="targetPoint" />
          </mxGeometry>
        </mxCell>
        <mxCell id="A21M22BNO2ODbD8kGbER-155" value="Extends" style="endArrow=block;endSize=16;endFill=0;html=1;rounded=0;" edge="1" parent="1" source="A21M22BNO2ODbD8kGbER-70" target="A21M22BNO2ODbD8kGbER-46">
          <mxGeometry width="160" relative="1" as="geometry">
            <mxPoint x="310" y="1370" as="sourcePoint" />
            <mxPoint x="900" y="1032" as="targetPoint" />
          </mxGeometry>
        </mxCell>
        <mxCell id="A21M22BNO2ODbD8kGbER-156" value="Extends" style="endArrow=block;endSize=16;endFill=0;html=1;rounded=0;" edge="1" parent="1" source="A21M22BNO2ODbD8kGbER-79" target="A21M22BNO2ODbD8kGbER-46">
          <mxGeometry width="160" relative="1" as="geometry">
            <mxPoint x="1071" y="1150" as="sourcePoint" />
            <mxPoint x="1059" y="1032" as="targetPoint" />
          </mxGeometry>
        </mxCell>
        <mxCell id="A21M22BNO2ODbD8kGbER-157" value="Extends" style="endArrow=block;endSize=16;endFill=0;html=1;rounded=0;" edge="1" parent="1" source="A21M22BNO2ODbD8kGbER-88" target="A21M22BNO2ODbD8kGbER-46">
          <mxGeometry width="160" relative="1" as="geometry">
            <mxPoint x="1338" y="1124" as="sourcePoint" />
            <mxPoint x="1189" y="1032" as="targetPoint" />
          </mxGeometry>
        </mxCell>
        <mxCell id="A21M22BNO2ODbD8kGbER-159" value="Extends" style="endArrow=block;endSize=16;endFill=0;html=1;rounded=0;" edge="1" parent="1" source="A21M22BNO2ODbD8kGbER-124" target="A21M22BNO2ODbD8kGbER-46">
          <mxGeometry width="160" relative="1" as="geometry">
            <mxPoint x="424" y="1212" as="sourcePoint" />
            <mxPoint x="870" y="1022" as="targetPoint" />
          </mxGeometry>
        </mxCell>
        <mxCell id="A21M22BNO2ODbD8kGbER-160" value="Extends" style="endArrow=block;endSize=16;endFill=0;html=1;rounded=0;" edge="1" parent="1" source="A21M22BNO2ODbD8kGbER-98" target="A21M22BNO2ODbD8kGbER-46">
          <mxGeometry width="160" relative="1" as="geometry">
            <mxPoint x="815" y="1298" as="sourcePoint" />
            <mxPoint x="993" y="1032" as="targetPoint" />
          </mxGeometry>
        </mxCell>
        <mxCell id="A21M22BNO2ODbD8kGbER-161" value="Extends" style="endArrow=block;endSize=16;endFill=0;html=1;rounded=0;" edge="1" parent="1" source="A21M22BNO2ODbD8kGbER-104" target="A21M22BNO2ODbD8kGbER-46">
          <mxGeometry width="160" relative="1" as="geometry">
            <mxPoint x="1650" y="1035" as="sourcePoint" />
            <mxPoint x="1230" y="973" as="targetPoint" />
          </mxGeometry>
        </mxCell>
        <mxCell id="A21M22BNO2ODbD8kGbER-162" value="Extends" style="endArrow=block;endSize=16;endFill=0;html=1;rounded=0;" edge="1" parent="1" source="A21M22BNO2ODbD8kGbER-111" target="A21M22BNO2ODbD8kGbER-46">
          <mxGeometry width="160" relative="1" as="geometry">
            <mxPoint x="1679" y="1179" as="sourcePoint" />
            <mxPoint x="1230" y="1013" as="targetPoint" />
          </mxGeometry>
        </mxCell>
        <mxCell id="A21M22BNO2ODbD8kGbER-163" value="Extends" style="endArrow=block;endSize=16;endFill=0;html=1;rounded=0;" edge="1" parent="1" source="A21M22BNO2ODbD8kGbER-116" target="A21M22BNO2ODbD8kGbER-46">
          <mxGeometry width="160" relative="1" as="geometry">
            <mxPoint x="981" y="1298" as="sourcePoint" />
            <mxPoint x="1033" y="1032" as="targetPoint" />
          </mxGeometry>
        </mxCell>
        <mxCell id="A21M22BNO2ODbD8kGbER-164" value="" style="endArrow=diamondThin;endFill=0;endSize=24;html=1;rounded=0;entryX=1;entryY=0;entryDx=0;entryDy=0;" edge="1" parent="1" source="A21M22BNO2ODbD8kGbER-46" target="A21M22BNO2ODbD8kGbER-98">
          <mxGeometry width="160" relative="1" as="geometry">
            <mxPoint x="1070" y="1200" as="sourcePoint" />
            <mxPoint x="1230" y="1200" as="targetPoint" />
          </mxGeometry>
        </mxCell>
        <mxCell id="A21M22BNO2ODbD8kGbER-172" value="«interface»&lt;br style=&quot;border-color: var(--border-color);&quot;&gt;&lt;b&gt;IDocument&lt;/b&gt;" style="swimlane;fontStyle=0;childLayout=stackLayout;horizontal=1;startSize=26;fillColor=none;horizontalStack=0;resizeParent=1;resizeParentMax=0;resizeLast=0;collapsible=1;marginBottom=0;whiteSpace=wrap;html=1;" vertex="1" parent="1">
          <mxGeometry x="1550" y="-150" width="510" height="290" as="geometry" />
        </mxCell>
        <mxCell id="A21M22BNO2ODbD8kGbER-173" value="+ insertParagraph(text: string, position: number): IParagraph;" style="text;strokeColor=none;fillColor=none;align=left;verticalAlign=top;spacingLeft=4;spacingRight=4;overflow=hidden;rotatable=0;points=[[0,0.5],[1,0.5]];portConstraint=eastwest;whiteSpace=wrap;html=1;" vertex="1" parent="A21M22BNO2ODbD8kGbER-172">
          <mxGeometry y="26" width="510" height="22" as="geometry" />
        </mxCell>
        <mxCell id="A21M22BNO2ODbD8kGbER-177" value="+&amp;nbsp;&amp;nbsp;insertImage( path: string, width: number, height: number, position: number, ): IImage" style="text;strokeColor=none;fillColor=none;align=left;verticalAlign=top;spacingLeft=4;spacingRight=4;overflow=hidden;rotatable=0;points=[[0,0.5],[1,0.5]];portConstraint=eastwest;whiteSpace=wrap;html=1;" vertex="1" parent="A21M22BNO2ODbD8kGbER-172">
          <mxGeometry y="48" width="510" height="22" as="geometry" />
        </mxCell>
        <mxCell id="A21M22BNO2ODbD8kGbER-178" value="+ getItemsCount(): number" style="text;strokeColor=none;fillColor=none;align=left;verticalAlign=top;spacingLeft=4;spacingRight=4;overflow=hidden;rotatable=0;points=[[0,0.5],[1,0.5]];portConstraint=eastwest;whiteSpace=wrap;html=1;" vertex="1" parent="A21M22BNO2ODbD8kGbER-172">
          <mxGeometry y="70" width="510" height="22" as="geometry" />
        </mxCell>
        <mxCell id="A21M22BNO2ODbD8kGbER-179" value="+ getItem(index: number): DocumentItem" style="text;strokeColor=none;fillColor=none;align=left;verticalAlign=top;spacingLeft=4;spacingRight=4;overflow=hidden;rotatable=0;points=[[0,0.5],[1,0.5]];portConstraint=eastwest;whiteSpace=wrap;html=1;" vertex="1" parent="A21M22BNO2ODbD8kGbER-172">
          <mxGeometry y="92" width="510" height="22" as="geometry" />
        </mxCell>
        <mxCell id="A21M22BNO2ODbD8kGbER-180" value="+ deleteItem(index: number): void" style="text;strokeColor=none;fillColor=none;align=left;verticalAlign=top;spacingLeft=4;spacingRight=4;overflow=hidden;rotatable=0;points=[[0,0.5],[1,0.5]];portConstraint=eastwest;whiteSpace=wrap;html=1;" vertex="1" parent="A21M22BNO2ODbD8kGbER-172">
          <mxGeometry y="114" width="510" height="22" as="geometry" />
        </mxCell>
        <mxCell id="A21M22BNO2ODbD8kGbER-181" value="+ getTitle(): string" style="text;strokeColor=none;fillColor=none;align=left;verticalAlign=top;spacingLeft=4;spacingRight=4;overflow=hidden;rotatable=0;points=[[0,0.5],[1,0.5]];portConstraint=eastwest;whiteSpace=wrap;html=1;" vertex="1" parent="A21M22BNO2ODbD8kGbER-172">
          <mxGeometry y="136" width="510" height="22" as="geometry" />
        </mxCell>
        <mxCell id="A21M22BNO2ODbD8kGbER-182" value="+ setTitle(title: string): void" style="text;strokeColor=none;fillColor=none;align=left;verticalAlign=top;spacingLeft=4;spacingRight=4;overflow=hidden;rotatable=0;points=[[0,0.5],[1,0.5]];portConstraint=eastwest;whiteSpace=wrap;html=1;" vertex="1" parent="A21M22BNO2ODbD8kGbER-172">
          <mxGeometry y="158" width="510" height="22" as="geometry" />
        </mxCell>
        <mxCell id="A21M22BNO2ODbD8kGbER-183" value="+ canUndo(): boolean" style="text;strokeColor=none;fillColor=none;align=left;verticalAlign=top;spacingLeft=4;spacingRight=4;overflow=hidden;rotatable=0;points=[[0,0.5],[1,0.5]];portConstraint=eastwest;whiteSpace=wrap;html=1;" vertex="1" parent="A21M22BNO2ODbD8kGbER-172">
          <mxGeometry y="180" width="510" height="22" as="geometry" />
        </mxCell>
        <mxCell id="A21M22BNO2ODbD8kGbER-184" value="+ undo(): void;" style="text;strokeColor=none;fillColor=none;align=left;verticalAlign=top;spacingLeft=4;spacingRight=4;overflow=hidden;rotatable=0;points=[[0,0.5],[1,0.5]];portConstraint=eastwest;whiteSpace=wrap;html=1;" vertex="1" parent="A21M22BNO2ODbD8kGbER-172">
          <mxGeometry y="202" width="510" height="22" as="geometry" />
        </mxCell>
        <mxCell id="A21M22BNO2ODbD8kGbER-185" value="+ canRedo(): boolean" style="text;strokeColor=none;fillColor=none;align=left;verticalAlign=top;spacingLeft=4;spacingRight=4;overflow=hidden;rotatable=0;points=[[0,0.5],[1,0.5]];portConstraint=eastwest;whiteSpace=wrap;html=1;" vertex="1" parent="A21M22BNO2ODbD8kGbER-172">
          <mxGeometry y="224" width="510" height="22" as="geometry" />
        </mxCell>
        <mxCell id="A21M22BNO2ODbD8kGbER-186" value="+ redo(): void" style="text;strokeColor=none;fillColor=none;align=left;verticalAlign=top;spacingLeft=4;spacingRight=4;overflow=hidden;rotatable=0;points=[[0,0.5],[1,0.5]];portConstraint=eastwest;whiteSpace=wrap;html=1;" vertex="1" parent="A21M22BNO2ODbD8kGbER-172">
          <mxGeometry y="246" width="510" height="22" as="geometry" />
        </mxCell>
        <mxCell id="A21M22BNO2ODbD8kGbER-187" value="+ save(path: string): void;" style="text;strokeColor=none;fillColor=none;align=left;verticalAlign=top;spacingLeft=4;spacingRight=4;overflow=hidden;rotatable=0;points=[[0,0.5],[1,0.5]];portConstraint=eastwest;whiteSpace=wrap;html=1;" vertex="1" parent="A21M22BNO2ODbD8kGbER-172">
          <mxGeometry y="268" width="510" height="22" as="geometry" />
        </mxCell>
        <mxCell id="A21M22BNO2ODbD8kGbER-188" value="&lt;b&gt;Document&lt;/b&gt;" style="swimlane;fontStyle=0;childLayout=stackLayout;horizontal=1;startSize=26;fillColor=none;horizontalStack=0;resizeParent=1;resizeParentMax=0;resizeLast=0;collapsible=1;marginBottom=0;whiteSpace=wrap;html=1;" vertex="1" parent="1">
          <mxGeometry x="1558" y="190" width="510" height="364" as="geometry" />
        </mxCell>
        <mxCell id="A21M22BNO2ODbD8kGbER-189" value="+ insertParagraph(text: string, position: number): IParagraph;" style="text;strokeColor=none;fillColor=none;align=left;verticalAlign=top;spacingLeft=4;spacingRight=4;overflow=hidden;rotatable=0;points=[[0,0.5],[1,0.5]];portConstraint=eastwest;whiteSpace=wrap;html=1;" vertex="1" parent="A21M22BNO2ODbD8kGbER-188">
          <mxGeometry y="26" width="510" height="22" as="geometry" />
        </mxCell>
        <mxCell id="A21M22BNO2ODbD8kGbER-190" value="+&amp;nbsp;&amp;nbsp;insertImage( path: string, width: number, height: number, position: number, ): IImage" style="text;strokeColor=none;fillColor=none;align=left;verticalAlign=top;spacingLeft=4;spacingRight=4;overflow=hidden;rotatable=0;points=[[0,0.5],[1,0.5]];portConstraint=eastwest;whiteSpace=wrap;html=1;" vertex="1" parent="A21M22BNO2ODbD8kGbER-188">
          <mxGeometry y="48" width="510" height="22" as="geometry" />
        </mxCell>
        <mxCell id="A21M22BNO2ODbD8kGbER-191" value="+ getItemsCount(): number" style="text;strokeColor=none;fillColor=none;align=left;verticalAlign=top;spacingLeft=4;spacingRight=4;overflow=hidden;rotatable=0;points=[[0,0.5],[1,0.5]];portConstraint=eastwest;whiteSpace=wrap;html=1;" vertex="1" parent="A21M22BNO2ODbD8kGbER-188">
          <mxGeometry y="70" width="510" height="22" as="geometry" />
        </mxCell>
        <mxCell id="A21M22BNO2ODbD8kGbER-192" value="+ getItem(index: number): DocumentItem" style="text;strokeColor=none;fillColor=none;align=left;verticalAlign=top;spacingLeft=4;spacingRight=4;overflow=hidden;rotatable=0;points=[[0,0.5],[1,0.5]];portConstraint=eastwest;whiteSpace=wrap;html=1;" vertex="1" parent="A21M22BNO2ODbD8kGbER-188">
          <mxGeometry y="92" width="510" height="22" as="geometry" />
        </mxCell>
        <mxCell id="A21M22BNO2ODbD8kGbER-193" value="+ deleteItem(index: number): void" style="text;strokeColor=none;fillColor=none;align=left;verticalAlign=top;spacingLeft=4;spacingRight=4;overflow=hidden;rotatable=0;points=[[0,0.5],[1,0.5]];portConstraint=eastwest;whiteSpace=wrap;html=1;" vertex="1" parent="A21M22BNO2ODbD8kGbER-188">
          <mxGeometry y="114" width="510" height="22" as="geometry" />
        </mxCell>
        <mxCell id="A21M22BNO2ODbD8kGbER-194" value="+ getTitle(): string" style="text;strokeColor=none;fillColor=none;align=left;verticalAlign=top;spacingLeft=4;spacingRight=4;overflow=hidden;rotatable=0;points=[[0,0.5],[1,0.5]];portConstraint=eastwest;whiteSpace=wrap;html=1;" vertex="1" parent="A21M22BNO2ODbD8kGbER-188">
          <mxGeometry y="136" width="510" height="22" as="geometry" />
        </mxCell>
        <mxCell id="A21M22BNO2ODbD8kGbER-195" value="+ setTitle(title: string): void" style="text;strokeColor=none;fillColor=none;align=left;verticalAlign=top;spacingLeft=4;spacingRight=4;overflow=hidden;rotatable=0;points=[[0,0.5],[1,0.5]];portConstraint=eastwest;whiteSpace=wrap;html=1;" vertex="1" parent="A21M22BNO2ODbD8kGbER-188">
          <mxGeometry y="158" width="510" height="22" as="geometry" />
        </mxCell>
        <mxCell id="A21M22BNO2ODbD8kGbER-196" value="+ canUndo(): boolean" style="text;strokeColor=none;fillColor=none;align=left;verticalAlign=top;spacingLeft=4;spacingRight=4;overflow=hidden;rotatable=0;points=[[0,0.5],[1,0.5]];portConstraint=eastwest;whiteSpace=wrap;html=1;" vertex="1" parent="A21M22BNO2ODbD8kGbER-188">
          <mxGeometry y="180" width="510" height="22" as="geometry" />
        </mxCell>
        <mxCell id="A21M22BNO2ODbD8kGbER-197" value="+ undo(): void;" style="text;strokeColor=none;fillColor=none;align=left;verticalAlign=top;spacingLeft=4;spacingRight=4;overflow=hidden;rotatable=0;points=[[0,0.5],[1,0.5]];portConstraint=eastwest;whiteSpace=wrap;html=1;" vertex="1" parent="A21M22BNO2ODbD8kGbER-188">
          <mxGeometry y="202" width="510" height="22" as="geometry" />
        </mxCell>
        <mxCell id="A21M22BNO2ODbD8kGbER-198" value="+ canRedo(): boolean" style="text;strokeColor=none;fillColor=none;align=left;verticalAlign=top;spacingLeft=4;spacingRight=4;overflow=hidden;rotatable=0;points=[[0,0.5],[1,0.5]];portConstraint=eastwest;whiteSpace=wrap;html=1;" vertex="1" parent="A21M22BNO2ODbD8kGbER-188">
          <mxGeometry y="224" width="510" height="22" as="geometry" />
        </mxCell>
        <mxCell id="A21M22BNO2ODbD8kGbER-199" value="+ redo(): void" style="text;strokeColor=none;fillColor=none;align=left;verticalAlign=top;spacingLeft=4;spacingRight=4;overflow=hidden;rotatable=0;points=[[0,0.5],[1,0.5]];portConstraint=eastwest;whiteSpace=wrap;html=1;" vertex="1" parent="A21M22BNO2ODbD8kGbER-188">
          <mxGeometry y="246" width="510" height="22" as="geometry" />
        </mxCell>
        <mxCell id="A21M22BNO2ODbD8kGbER-200" value="+ save(path: string): void;" style="text;strokeColor=none;fillColor=none;align=left;verticalAlign=top;spacingLeft=4;spacingRight=4;overflow=hidden;rotatable=0;points=[[0,0.5],[1,0.5]];portConstraint=eastwest;whiteSpace=wrap;html=1;" vertex="1" parent="A21M22BNO2ODbD8kGbER-188">
          <mxGeometry y="268" width="510" height="22" as="geometry" />
        </mxCell>
        <mxCell id="A21M22BNO2ODbD8kGbER-204" value="" style="line;strokeWidth=1;fillColor=none;align=left;verticalAlign=middle;spacingTop=-1;spacingLeft=3;spacingRight=3;rotatable=0;labelPosition=right;points=[];portConstraint=eastwest;strokeColor=inherit;" vertex="1" parent="A21M22BNO2ODbD8kGbER-188">
          <mxGeometry y="290" width="510" height="8" as="geometry" />
        </mxCell>
        <mxCell id="A21M22BNO2ODbD8kGbER-201" value="- title: string" style="text;strokeColor=none;fillColor=none;align=left;verticalAlign=top;spacingLeft=4;spacingRight=4;overflow=hidden;rotatable=0;points=[[0,0.5],[1,0.5]];portConstraint=eastwest;whiteSpace=wrap;html=1;" vertex="1" parent="A21M22BNO2ODbD8kGbER-188">
          <mxGeometry y="298" width="510" height="22" as="geometry" />
        </mxCell>
        <mxCell id="A21M22BNO2ODbD8kGbER-202" value="- items: DocumentItem[]" style="text;strokeColor=none;fillColor=none;align=left;verticalAlign=top;spacingLeft=4;spacingRight=4;overflow=hidden;rotatable=0;points=[[0,0.5],[1,0.5]];portConstraint=eastwest;whiteSpace=wrap;html=1;" vertex="1" parent="A21M22BNO2ODbD8kGbER-188">
          <mxGeometry y="320" width="510" height="22" as="geometry" />
        </mxCell>
        <mxCell id="A21M22BNO2ODbD8kGbER-203" value="- history: IHistory" style="text;strokeColor=none;fillColor=none;align=left;verticalAlign=top;spacingLeft=4;spacingRight=4;overflow=hidden;rotatable=0;points=[[0,0.5],[1,0.5]];portConstraint=eastwest;whiteSpace=wrap;html=1;" vertex="1" parent="A21M22BNO2ODbD8kGbER-188">
          <mxGeometry y="342" width="510" height="22" as="geometry" />
        </mxCell>
        <mxCell id="A21M22BNO2ODbD8kGbER-205" value="«interface»&lt;br style=&quot;border-color: var(--border-color);&quot;&gt;&lt;b&gt;IHistory&lt;/b&gt;" style="swimlane;fontStyle=0;childLayout=stackLayout;horizontal=1;startSize=26;fillColor=none;horizontalStack=0;resizeParent=1;resizeParentMax=0;resizeLast=0;collapsible=1;marginBottom=0;whiteSpace=wrap;html=1;" vertex="1" parent="1">
          <mxGeometry x="2670" y="110" width="510" height="136" as="geometry" />
        </mxCell>
        <mxCell id="A21M22BNO2ODbD8kGbER-213" value="+ canUndo(): boolean" style="text;strokeColor=none;fillColor=none;align=left;verticalAlign=top;spacingLeft=4;spacingRight=4;overflow=hidden;rotatable=0;points=[[0,0.5],[1,0.5]];portConstraint=eastwest;whiteSpace=wrap;html=1;" vertex="1" parent="A21M22BNO2ODbD8kGbER-205">
          <mxGeometry y="26" width="510" height="22" as="geometry" />
        </mxCell>
        <mxCell id="A21M22BNO2ODbD8kGbER-214" value="+ undo(): void;" style="text;strokeColor=none;fillColor=none;align=left;verticalAlign=top;spacingLeft=4;spacingRight=4;overflow=hidden;rotatable=0;points=[[0,0.5],[1,0.5]];portConstraint=eastwest;whiteSpace=wrap;html=1;" vertex="1" parent="A21M22BNO2ODbD8kGbER-205">
          <mxGeometry y="48" width="510" height="22" as="geometry" />
        </mxCell>
        <mxCell id="A21M22BNO2ODbD8kGbER-215" value="+ canRedo(): boolean" style="text;strokeColor=none;fillColor=none;align=left;verticalAlign=top;spacingLeft=4;spacingRight=4;overflow=hidden;rotatable=0;points=[[0,0.5],[1,0.5]];portConstraint=eastwest;whiteSpace=wrap;html=1;" vertex="1" parent="A21M22BNO2ODbD8kGbER-205">
          <mxGeometry y="70" width="510" height="22" as="geometry" />
        </mxCell>
        <mxCell id="A21M22BNO2ODbD8kGbER-216" value="+ redo(): void" style="text;strokeColor=none;fillColor=none;align=left;verticalAlign=top;spacingLeft=4;spacingRight=4;overflow=hidden;rotatable=0;points=[[0,0.5],[1,0.5]];portConstraint=eastwest;whiteSpace=wrap;html=1;" vertex="1" parent="A21M22BNO2ODbD8kGbER-205">
          <mxGeometry y="92" width="510" height="22" as="geometry" />
        </mxCell>
        <mxCell id="A21M22BNO2ODbD8kGbER-217" value="+&amp;nbsp;addAndExecuteCommand(command: ICommand): void;" style="text;strokeColor=none;fillColor=none;align=left;verticalAlign=top;spacingLeft=4;spacingRight=4;overflow=hidden;rotatable=0;points=[[0,0.5],[1,0.5]];portConstraint=eastwest;whiteSpace=wrap;html=1;" vertex="1" parent="A21M22BNO2ODbD8kGbER-205">
          <mxGeometry y="114" width="510" height="22" as="geometry" />
        </mxCell>
        <mxCell id="A21M22BNO2ODbD8kGbER-218" value="&lt;b&gt;History&lt;/b&gt;" style="swimlane;fontStyle=0;childLayout=stackLayout;horizontal=1;startSize=26;fillColor=none;horizontalStack=0;resizeParent=1;resizeParentMax=0;resizeLast=0;collapsible=1;marginBottom=0;whiteSpace=wrap;html=1;" vertex="1" parent="1">
          <mxGeometry x="2340" y="397" width="510" height="188" as="geometry" />
        </mxCell>
        <mxCell id="A21M22BNO2ODbD8kGbER-219" value="+ canUndo(): boolean" style="text;strokeColor=none;fillColor=none;align=left;verticalAlign=top;spacingLeft=4;spacingRight=4;overflow=hidden;rotatable=0;points=[[0,0.5],[1,0.5]];portConstraint=eastwest;whiteSpace=wrap;html=1;" vertex="1" parent="A21M22BNO2ODbD8kGbER-218">
          <mxGeometry y="26" width="510" height="22" as="geometry" />
        </mxCell>
        <mxCell id="A21M22BNO2ODbD8kGbER-220" value="+ undo(): void;" style="text;strokeColor=none;fillColor=none;align=left;verticalAlign=top;spacingLeft=4;spacingRight=4;overflow=hidden;rotatable=0;points=[[0,0.5],[1,0.5]];portConstraint=eastwest;whiteSpace=wrap;html=1;" vertex="1" parent="A21M22BNO2ODbD8kGbER-218">
          <mxGeometry y="48" width="510" height="22" as="geometry" />
        </mxCell>
        <mxCell id="A21M22BNO2ODbD8kGbER-221" value="+ canRedo(): boolean" style="text;strokeColor=none;fillColor=none;align=left;verticalAlign=top;spacingLeft=4;spacingRight=4;overflow=hidden;rotatable=0;points=[[0,0.5],[1,0.5]];portConstraint=eastwest;whiteSpace=wrap;html=1;" vertex="1" parent="A21M22BNO2ODbD8kGbER-218">
          <mxGeometry y="70" width="510" height="22" as="geometry" />
        </mxCell>
        <mxCell id="A21M22BNO2ODbD8kGbER-222" value="+ redo(): void" style="text;strokeColor=none;fillColor=none;align=left;verticalAlign=top;spacingLeft=4;spacingRight=4;overflow=hidden;rotatable=0;points=[[0,0.5],[1,0.5]];portConstraint=eastwest;whiteSpace=wrap;html=1;" vertex="1" parent="A21M22BNO2ODbD8kGbER-218">
          <mxGeometry y="92" width="510" height="22" as="geometry" />
        </mxCell>
        <mxCell id="A21M22BNO2ODbD8kGbER-223" value="+&amp;nbsp;addAndExecuteCommand(command: ICommand): void;" style="text;strokeColor=none;fillColor=none;align=left;verticalAlign=top;spacingLeft=4;spacingRight=4;overflow=hidden;rotatable=0;points=[[0,0.5],[1,0.5]];portConstraint=eastwest;whiteSpace=wrap;html=1;" vertex="1" parent="A21M22BNO2ODbD8kGbER-218">
          <mxGeometry y="114" width="510" height="22" as="geometry" />
        </mxCell>
        <mxCell id="A21M22BNO2ODbD8kGbER-226" value="" style="line;strokeWidth=1;fillColor=none;align=left;verticalAlign=middle;spacingTop=-1;spacingLeft=3;spacingRight=3;rotatable=0;labelPosition=right;points=[];portConstraint=eastwest;strokeColor=inherit;" vertex="1" parent="A21M22BNO2ODbD8kGbER-218">
          <mxGeometry y="136" width="510" height="8" as="geometry" />
        </mxCell>
        <mxCell id="A21M22BNO2ODbD8kGbER-224" value="- commands: ICommand[]" style="text;strokeColor=none;fillColor=none;align=left;verticalAlign=top;spacingLeft=4;spacingRight=4;overflow=hidden;rotatable=0;points=[[0,0.5],[1,0.5]];portConstraint=eastwest;whiteSpace=wrap;html=1;" vertex="1" parent="A21M22BNO2ODbD8kGbER-218">
          <mxGeometry y="144" width="510" height="22" as="geometry" />
        </mxCell>
        <mxCell id="A21M22BNO2ODbD8kGbER-225" value="-&amp;nbsp;currentActionIndex: number;" style="text;strokeColor=none;fillColor=none;align=left;verticalAlign=top;spacingLeft=4;spacingRight=4;overflow=hidden;rotatable=0;points=[[0,0.5],[1,0.5]];portConstraint=eastwest;whiteSpace=wrap;html=1;" vertex="1" parent="A21M22BNO2ODbD8kGbER-218">
          <mxGeometry y="166" width="510" height="22" as="geometry" />
        </mxCell>
        <mxCell id="A21M22BNO2ODbD8kGbER-227" value="" style="endArrow=block;dashed=1;endFill=0;endSize=12;html=1;rounded=0;" edge="1" parent="1" source="A21M22BNO2ODbD8kGbER-218" target="A21M22BNO2ODbD8kGbER-205">
          <mxGeometry width="160" relative="1" as="geometry">
            <mxPoint x="2130" y="470" as="sourcePoint" />
            <mxPoint x="2360" y="510" as="targetPoint" />
          </mxGeometry>
        </mxCell>
        <mxCell id="A21M22BNO2ODbD8kGbER-228" value="" style="endArrow=block;dashed=1;endFill=0;endSize=12;html=1;rounded=0;" edge="1" parent="1" source="A21M22BNO2ODbD8kGbER-188" target="A21M22BNO2ODbD8kGbER-172">
          <mxGeometry width="160" relative="1" as="geometry">
            <mxPoint x="2543" y="407" as="sourcePoint" />
            <mxPoint x="2390" y="176" as="targetPoint" />
          </mxGeometry>
        </mxCell>
        <mxCell id="A21M22BNO2ODbD8kGbER-229" value="" style="endArrow=diamondThin;endFill=0;endSize=24;html=1;rounded=0;" edge="1" parent="1" source="A21M22BNO2ODbD8kGbER-9" target="A21M22BNO2ODbD8kGbER-32">
          <mxGeometry width="160" relative="1" as="geometry">
            <mxPoint x="1060" y="290" as="sourcePoint" />
            <mxPoint x="1220" y="290" as="targetPoint" />
          </mxGeometry>
        </mxCell>
        <mxCell id="A21M22BNO2ODbD8kGbER-230" value="" style="endArrow=diamondThin;endFill=0;endSize=24;html=1;rounded=0;" edge="1" parent="1" source="A21M22BNO2ODbD8kGbER-20" target="A21M22BNO2ODbD8kGbER-32">
          <mxGeometry width="160" relative="1" as="geometry">
            <mxPoint x="833" y="168" as="sourcePoint" />
            <mxPoint x="1128" y="350" as="targetPoint" />
          </mxGeometry>
        </mxCell>
        <mxCell id="A21M22BNO2ODbD8kGbER-233" value="" style="endArrow=diamondThin;endFill=1;endSize=24;html=1;rounded=0;" edge="1" parent="1" source="A21M22BNO2ODbD8kGbER-32" target="A21M22BNO2ODbD8kGbER-188">
          <mxGeometry width="160" relative="1" as="geometry">
            <mxPoint x="1250" y="420" as="sourcePoint" />
            <mxPoint x="1410" y="420" as="targetPoint" />
          </mxGeometry>
        </mxCell>
        <mxCell id="A21M22BNO2ODbD8kGbER-235" value="" style="endArrow=diamondThin;endFill=0;endSize=24;html=1;rounded=0;" edge="1" parent="1" source="A21M22BNO2ODbD8kGbER-218" target="A21M22BNO2ODbD8kGbER-188">
          <mxGeometry width="160" relative="1" as="geometry">
            <mxPoint x="975" y="530" as="sourcePoint" />
            <mxPoint x="1014" y="428" as="targetPoint" />
          </mxGeometry>
        </mxCell>
        <mxCell id="A21M22BNO2ODbD8kGbER-236" value="" style="endArrow=diamondThin;endFill=0;endSize=24;html=1;rounded=0;" edge="1" parent="1" source="A21M22BNO2ODbD8kGbER-41" target="A21M22BNO2ODbD8kGbER-218">
          <mxGeometry width="160" relative="1" as="geometry">
            <mxPoint x="1203" y="200" as="sourcePoint" />
            <mxPoint x="1111" y="290" as="targetPoint" />
          </mxGeometry>
        </mxCell>
        <mxCell id="A21M22BNO2ODbD8kGbER-237" value="&lt;b&gt;HTMLLayoutCreator&amp;nbsp;&lt;/b&gt;" style="swimlane;fontStyle=0;childLayout=stackLayout;horizontal=1;startSize=26;fillColor=none;horizontalStack=0;resizeParent=1;resizeParentMax=0;resizeLast=0;collapsible=1;marginBottom=0;whiteSpace=wrap;html=1;" vertex="1" parent="1">
          <mxGeometry x="2330" y="880" width="510" height="188" as="geometry" />
        </mxCell>
        <mxCell id="A21M22BNO2ODbD8kGbER-239" value="+&amp;nbsp;setTitle(title: string): void" style="text;strokeColor=none;fillColor=none;align=left;verticalAlign=top;spacingLeft=4;spacingRight=4;overflow=hidden;rotatable=0;points=[[0,0.5],[1,0.5]];portConstraint=eastwest;whiteSpace=wrap;html=1;" vertex="1" parent="A21M22BNO2ODbD8kGbER-237">
          <mxGeometry y="26" width="510" height="22" as="geometry" />
        </mxCell>
        <mxCell id="A21M22BNO2ODbD8kGbER-240" value="+&amp;nbsp;addParagraph(text: string): void" style="text;strokeColor=none;fillColor=none;align=left;verticalAlign=top;spacingLeft=4;spacingRight=4;overflow=hidden;rotatable=0;points=[[0,0.5],[1,0.5]];portConstraint=eastwest;whiteSpace=wrap;html=1;" vertex="1" parent="A21M22BNO2ODbD8kGbER-237">
          <mxGeometry y="48" width="510" height="22" as="geometry" />
        </mxCell>
        <mxCell id="A21M22BNO2ODbD8kGbER-241" value="+&amp;nbsp;addImage(path: string, width: number, height: number): void" style="text;strokeColor=none;fillColor=none;align=left;verticalAlign=top;spacingLeft=4;spacingRight=4;overflow=hidden;rotatable=0;points=[[0,0.5],[1,0.5]];portConstraint=eastwest;whiteSpace=wrap;html=1;" vertex="1" parent="A21M22BNO2ODbD8kGbER-237">
          <mxGeometry y="70" width="510" height="22" as="geometry" />
        </mxCell>
        <mxCell id="A21M22BNO2ODbD8kGbER-242" value="+&amp;nbsp;createHTMLLayout(): string" style="text;strokeColor=none;fillColor=none;align=left;verticalAlign=top;spacingLeft=4;spacingRight=4;overflow=hidden;rotatable=0;points=[[0,0.5],[1,0.5]];portConstraint=eastwest;whiteSpace=wrap;html=1;" vertex="1" parent="A21M22BNO2ODbD8kGbER-237">
          <mxGeometry y="92" width="510" height="22" as="geometry" />
        </mxCell>
        <mxCell id="A21M22BNO2ODbD8kGbER-243" value="+&amp;nbsp;getHead(): string" style="text;strokeColor=none;fillColor=none;align=left;verticalAlign=top;spacingLeft=4;spacingRight=4;overflow=hidden;rotatable=0;points=[[0,0.5],[1,0.5]];portConstraint=eastwest;whiteSpace=wrap;html=1;" vertex="1" parent="A21M22BNO2ODbD8kGbER-237">
          <mxGeometry y="114" width="510" height="22" as="geometry" />
        </mxCell>
        <mxCell id="A21M22BNO2ODbD8kGbER-250" value="" style="line;strokeWidth=1;fillColor=none;align=left;verticalAlign=middle;spacingTop=-1;spacingLeft=3;spacingRight=3;rotatable=0;labelPosition=right;points=[];portConstraint=eastwest;strokeColor=inherit;" vertex="1" parent="A21M22BNO2ODbD8kGbER-237">
          <mxGeometry y="136" width="510" height="8" as="geometry" />
        </mxCell>
        <mxCell id="A21M22BNO2ODbD8kGbER-251" value="- title: string" style="text;strokeColor=none;fillColor=none;align=left;verticalAlign=top;spacingLeft=4;spacingRight=4;overflow=hidden;rotatable=0;points=[[0,0.5],[1,0.5]];portConstraint=eastwest;whiteSpace=wrap;html=1;" vertex="1" parent="A21M22BNO2ODbD8kGbER-237">
          <mxGeometry y="144" width="510" height="22" as="geometry" />
        </mxCell>
        <mxCell id="A21M22BNO2ODbD8kGbER-252" value="- layoutText: string[]" style="text;strokeColor=none;fillColor=none;align=left;verticalAlign=top;spacingLeft=4;spacingRight=4;overflow=hidden;rotatable=0;points=[[0,0.5],[1,0.5]];portConstraint=eastwest;whiteSpace=wrap;html=1;" vertex="1" parent="A21M22BNO2ODbD8kGbER-237">
          <mxGeometry y="166" width="510" height="22" as="geometry" />
        </mxCell>
      </root>
    </mxGraphModel>
  </diagram>
</mxfile>
